<svg width="20" height="20" viewBox="0 0 20 20" fill="none" xmlns="http://www.w3.org/2000/svg">
<circle cx="10" cy="10" r="10" fill="#007580"/>
<path d="M7.70867 13V12.24C8.16201 11.88 8.59534 11.5167 9.00867 11.15C9.42201 10.7833 9.78867 10.4233 10.1087 10.07C10.4353 9.71 10.692 9.36 10.8787 9.02C11.0653 8.67333 11.1587 8.34 11.1587 8.02C11.1587 7.80667 11.122 7.60667 11.0487 7.42C10.9753 7.22667 10.8553 7.07333 10.6887 6.96C10.522 6.84 10.2987 6.78 10.0187 6.78C9.59867 6.78 9.28201 6.91333 9.06867 7.18C8.86201 7.44667 8.76201 7.76667 8.76867 8.14H7.73867C7.74534 7.64667 7.84867 7.23333 8.04867 6.9C8.25534 6.56667 8.52867 6.31333 8.86867 6.14C9.21534 5.96667 9.60534 5.88 10.0387 5.88C10.6987 5.88 11.2253 6.06667 11.6187 6.44C12.0187 6.80667 12.2187 7.32 12.2187 7.98C12.2187 8.37333 12.122 8.76333 11.9287 9.15C11.742 9.53667 11.4953 9.91 11.1887 10.27C10.8887 10.6233 10.5653 10.9567 10.2187 11.27C9.87201 11.5833 9.54201 11.8667 9.22867 12.12H12.4287V13H7.70867Z" fill="white"/>
</svg>
